<?xml version="1.0" encoding="UTF-8" standalone="no"?>
<!DOCTYPE svg PUBLIC "-//W3C//DTD SVG 20010904//EN"
              "http://www.w3.org/TR/2001/REC-SVG-20010904/DTD/svg10.dtd">

<svg xmlns="http://www.w3.org/2000/svg"
     width="11.6667in" height="11.2639in"
     viewBox="0 0 840 811">
  <path id="Selection"
        fill="none" stroke="black" stroke-width="1"
        d="M 338.00,32.00
           C 338.00,32.00 338.00,33.00 338.00,33.00
             338.00,33.00 339.00,32.00 339.00,32.00
             339.00,32.00 338.00,32.00 338.00,32.00 Z
           M 279.06,338.00
           C 280.50,341.08 280.01,343.64 280.00,347.00
             280.00,347.00 278.78,367.01 278.78,367.01
             278.78,367.01 278.78,374.00 278.78,374.00
             278.00,389.06 278.73,388.45 273.01,402.83
             273.01,402.83 270.03,411.00 270.03,411.00
             266.12,419.01 258.93,428.32 256.81,436.96
             254.45,446.60 252.17,460.35 254.21,470.00
             256.05,478.72 261.72,488.76 262.00,496.00
             266.89,498.69 275.85,511.45 281.28,516.54
             292.75,527.26 305.75,536.58 315.55,549.00
             332.23,570.15 340.76,592.31 352.60,616.00
             352.60,616.00 358.13,627.00 358.13,627.00
             358.13,627.00 362.68,638.00 362.68,638.00
             366.47,645.31 372.62,654.60 372.00,663.00
             375.49,664.16 376.59,668.80 378.15,671.91
             378.15,671.91 382.10,679.04 382.10,679.04
             384.83,684.76 386.14,688.38 389.68,694.00
             389.68,694.00 396.57,704.04 396.57,704.04
             396.57,704.04 403.19,715.00 403.19,715.00
             406.31,719.62 418.24,733.98 422.17,737.70
             429.42,744.56 443.02,750.35 448.00,756.00
             451.91,754.10 455.69,755.43 458.00,759.00
             462.00,756.31 462.34,756.85 467.00,756.97
             481.24,757.33 479.39,759.40 492.00,764.55
             499.56,767.64 508.69,771.26 517.00,770.90
             517.00,770.90 524.00,769.89 524.00,769.89
             524.00,769.89 532.00,769.89 532.00,769.89
             535.91,769.14 543.47,767.31 547.00,765.68
             555.41,761.78 568.22,749.79 573.21,742.00
             573.21,742.00 577.86,733.04 577.86,733.04
             577.86,733.04 582.29,724.96 582.29,724.96
             583.76,721.15 586.20,709.36 586.87,705.00
             588.09,697.16 590.03,694.80 588.56,686.00
             588.56,686.00 580.40,655.96 580.40,655.96
             577.57,648.76 571.89,635.40 572.00,628.00
             569.80,627.04 570.57,626.21 571.00,624.00
             571.00,624.00 568.00,625.00 568.00,625.00
             566.44,620.07 563.51,615.66 561.26,611.00
             561.26,611.00 542.32,574.00 542.32,574.00
             538.66,566.82 533.37,561.47 533.00,553.00
             528.28,550.48 526.56,545.45 523.67,541.00
             523.67,541.00 510.31,518.00 510.31,518.00
             507.47,513.55 501.32,504.05 501.00,499.00
             496.48,494.27 493.12,483.34 490.92,477.00
             488.74,470.69 485.49,459.55 485.09,453.00
             485.09,453.00 486.96,436.00 486.96,436.00
             487.30,428.18 487.41,416.33 489.42,409.00
             491.63,400.99 492.37,401.62 494.44,396.00
             494.44,396.00 496.91,388.00 496.91,388.00
             496.91,388.00 506.43,362.00 506.43,362.00
             510.02,350.10 516.82,330.97 522.25,320.00
             524.02,316.41 525.95,310.66 528.00,308.00
             528.25,297.15 533.44,285.96 537.23,276.00
             537.23,276.00 540.28,264.00 540.28,264.00
             540.28,264.00 545.33,249.00 545.33,249.00
             545.33,249.00 548.35,236.00 548.35,236.00
             551.38,226.13 555.43,216.27 556.86,206.00
             556.86,206.00 558.68,179.00 558.68,179.00
             558.68,179.00 557.68,169.35 557.68,169.35
             557.43,157.92 559.85,157.14 562.71,147.00
             562.71,147.00 569.46,123.00 569.46,123.00
             571.28,118.20 576.70,105.79 575.53,101.09
             573.57,93.18 560.36,94.26 558.00,87.00
             551.66,87.36 537.09,80.27 531.00,77.31
             531.00,77.31 512.00,69.72 512.00,69.72
             512.00,69.72 493.00,60.87 493.00,60.87
             485.59,58.12 475.74,55.72 470.00,50.00
             460.30,51.33 461.12,51.67 455.36,63.00
             453.98,65.71 453.04,71.24 450.00,72.00
             450.00,72.00 448.00,78.00 448.00,78.00
             448.76,86.53 442.77,96.76 440.49,105.00
             439.19,109.68 438.21,116.21 434.73,119.79
             425.68,129.10 423.87,109.10 424.04,104.00
             424.04,104.00 425.32,78.00 425.32,78.00
             425.32,78.00 426.91,54.00 426.91,54.00
             426.71,50.59 426.09,44.01 422.77,42.13
             420.96,41.31 411.76,42.00 409.00,42.13
             409.00,42.13 392.00,41.00 392.00,41.00
             392.00,41.00 373.00,42.00 373.00,42.00
             373.00,42.00 352.00,41.00 352.00,41.00
             352.00,41.00 333.00,42.00 333.00,42.00
             333.00,42.00 312.00,41.00 312.00,41.00
             308.75,40.99 302.93,40.44 300.43,42.60
             297.97,44.72 297.34,49.90 297.08,53.00
             297.08,53.00 295.36,75.00 295.36,75.00
             294.82,80.16 297.07,86.52 295.36,95.00
             294.28,101.99 290.87,108.31 288.75,115.00
             288.75,115.00 280.18,158.91 280.18,158.91
             280.18,158.91 279.21,172.28 279.21,172.28
             279.21,172.28 280.00,187.00 280.00,187.00
             280.00,187.00 279.00,206.00 279.00,206.00
             279.00,206.00 280.00,232.00 280.00,232.00
             280.00,232.00 279.10,248.00 279.10,248.00
             279.10,248.00 279.10,267.09 279.10,267.09
             279.10,267.09 279.10,294.00 279.10,294.00
             279.10,294.00 279.98,314.00 279.98,314.00
             279.98,314.00 279.06,322.99 279.06,322.99
             278.85,328.54 280.17,332.27 279.06,338.00 Z
           M 431.00,54.00
           C 431.00,54.00 431.00,55.00 431.00,55.00
             431.00,55.00 432.00,54.00 432.00,54.00
             432.00,54.00 431.00,54.00 431.00,54.00 Z
           M 448.00,66.00
           C 448.00,66.00 448.00,67.00 448.00,67.00
             448.00,67.00 449.00,66.00 449.00,66.00
             449.00,66.00 448.00,66.00 448.00,66.00 Z
           M 553.00,85.00
           C 553.00,85.00 553.00,86.00 553.00,86.00
             553.00,86.00 554.00,85.00 554.00,85.00
             554.00,85.00 553.00,85.00 553.00,85.00 Z
           M 552.00,241.00
           C 552.00,241.00 552.00,242.00 552.00,242.00
             552.00,242.00 553.00,241.00 553.00,241.00
             553.00,241.00 552.00,241.00 552.00,241.00 Z
           M 495.00,464.00
           C 495.00,464.00 495.00,465.00 495.00,465.00
             495.00,465.00 496.00,464.00 496.00,464.00
             496.00,464.00 495.00,464.00 495.00,464.00 Z
           M 503.00,481.00
           C 503.00,481.00 503.00,482.00 503.00,482.00
             503.00,482.00 504.00,481.00 504.00,481.00
             504.00,481.00 503.00,481.00 503.00,481.00 Z
           M 511.00,496.00
           C 511.00,496.00 511.00,497.00 511.00,497.00
             511.00,497.00 512.00,496.00 512.00,496.00
             512.00,496.00 511.00,496.00 511.00,496.00 Z
           M 531.00,544.00
           C 531.00,544.00 531.00,545.00 531.00,545.00
             531.00,545.00 532.00,544.00 532.00,544.00
             532.00,544.00 531.00,544.00 531.00,544.00 Z
           M 546.00,576.00
           C 546.00,576.00 546.00,577.00 546.00,577.00
             546.00,577.00 547.00,576.00 547.00,576.00
             547.00,576.00 546.00,576.00 546.00,576.00 Z
           M 346.00,606.00
           C 346.00,606.00 348.00,610.00 348.00,610.00
             348.00,610.00 346.00,606.00 346.00,606.00 Z
           M 352.00,619.00
           C 352.00,619.00 352.00,620.00 352.00,620.00
             352.00,620.00 353.00,619.00 353.00,619.00
             353.00,619.00 352.00,619.00 352.00,619.00 Z
           M 372.00,665.00
           C 372.00,665.00 372.00,666.00 372.00,666.00
             372.00,666.00 373.00,665.00 373.00,665.00
             373.00,665.00 372.00,665.00 372.00,665.00 Z
           M 590.00,687.00
           C 590.00,687.00 590.00,688.00 590.00,688.00
             590.00,688.00 591.00,687.00 591.00,687.00
             591.00,687.00 590.00,687.00 590.00,687.00 Z
           M 384.00,693.00
           C 384.00,693.00 384.00,694.00 384.00,694.00
             384.00,694.00 385.00,693.00 385.00,693.00
             385.00,693.00 384.00,693.00 384.00,693.00 Z" />
</svg>
