<?xml version="1.0" encoding="UTF-8" standalone="no"?>
<!DOCTYPE svg PUBLIC "-//W3C//DTD SVG 20010904//EN"
              "http://www.w3.org/TR/2001/REC-SVG-20010904/DTD/svg10.dtd">

<svg xmlns="http://www.w3.org/2000/svg"
     width="11.6667in" height="11.2639in"
     viewBox="0 0 840 811">
  <path id="Selection #1"
        fill="none" stroke="black" stroke-width="1"
        d="M 0.00,0.00
           C 0.00,0.00 0.00,811.00 0.00,811.00
             0.00,811.00 840.00,811.00 840.00,811.00
             840.00,811.00 840.00,0.00 840.00,0.00
             840.00,0.00 0.00,0.00 0.00,0.00 Z
           M 553.00,213.00
           C 554.28,219.38 551.11,224.95 549.36,231.00
             549.36,231.00 539.63,264.00 539.63,264.00
             538.41,268.55 535.91,273.55 536.00,278.00
             536.00,278.00 534.00,278.00 534.00,278.00
             534.00,278.00 530.00,297.00 530.00,297.00
             530.00,297.00 526.00,296.00 526.00,296.00
             526.00,296.00 528.00,298.00 528.00,298.00
             528.00,298.00 529.00,298.00 529.00,298.00
             529.00,298.00 525.00,302.00 525.00,302.00
             527.51,306.18 524.74,315.11 521.00,318.00
             520.68,321.96 519.24,325.58 516.00,328.00
             516.54,333.22 514.71,335.25 513.08,340.00
             513.08,340.00 507.81,356.00 507.81,356.00
             507.81,356.00 502.30,372.00 502.30,372.00
             502.30,372.00 495.54,389.00 495.54,389.00
             495.54,389.00 493.25,397.00 493.25,397.00
             490.81,404.44 488.39,408.65 487.29,417.00
             487.29,417.00 485.96,437.00 485.96,437.00
             485.96,437.00 485.00,448.00 485.00,448.00
             484.91,455.72 485.54,463.56 487.77,471.00
             490.78,481.03 495.81,490.46 500.00,500.00
             501.86,504.25 504.61,508.34 505.00,513.00
             509.30,515.70 512.75,523.44 515.23,528.00
             515.23,528.00 531.28,556.00 531.28,556.00
             531.28,556.00 558.96,608.00 558.96,608.00
             558.96,608.00 569.77,629.00 569.77,629.00
             569.77,629.00 577.61,650.88 577.61,650.88
             581.95,663.00 587.46,678.07 587.96,691.00
             588.12,695.17 587.45,698.90 586.87,703.00
             583.27,728.68 568.96,755.59 544.00,766.13
             535.25,769.82 527.28,770.10 518.00,770.00
             508.95,769.89 498.37,766.94 490.00,763.55
             490.00,763.55 477.00,757.49 477.00,757.49
             477.00,757.49 466.00,756.72 466.00,756.72
             456.17,755.54 446.65,753.39 438.00,748.38
             416.30,735.82 400.95,712.54 388.86,691.00
             388.86,691.00 372.69,658.00 372.69,658.00
             372.69,658.00 345.11,599.00 345.11,599.00
             337.63,583.63 330.84,568.76 320.53,555.00
             309.99,540.95 302.17,533.78 289.00,522.42
             289.00,522.42 276.17,510.96 276.17,510.96
             262.85,496.81 253.78,476.59 254.00,457.00
             254.12,446.54 258.41,432.10 263.51,423.00
             266.78,417.18 268.71,416.93 272.13,409.00
             277.71,396.05 279.90,380.02 280.00,366.00
             280.00,366.00 281.00,350.00 281.00,350.00
             281.00,350.00 280.00,321.00 280.00,321.00
             280.00,321.00 280.00,179.00 280.00,179.00
             280.02,163.19 283.05,140.32 286.89,125.00
             290.55,110.45 295.97,104.33 296.04,88.00
             296.04,88.00 296.04,75.00 296.04,75.00
             296.04,75.00 297.00,65.00 297.00,65.00
             297.00,65.00 297.00,57.00 297.00,57.00
             297.05,53.20 297.49,44.42 301.39,42.57
             302.89,41.86 306.28,42.00 308.00,42.00
             308.00,42.00 414.00,42.00 414.00,42.00
             416.46,42.00 420.50,41.76 422.57,43.17
             426.83,46.09 426.01,59.17 426.00,64.00
             426.00,64.00 423.92,90.00 423.92,90.00
             423.92,90.00 423.92,94.00 423.92,94.00
             423.92,94.00 423.92,102.00 423.92,102.00
             423.59,106.34 424.51,115.00 426.02,118.99
             427.29,122.33 429.39,125.15 432.98,122.45
             437.27,119.23 439.34,111.01 441.00,106.00
             441.00,106.00 453.94,69.00 453.94,69.00
             455.86,64.05 459.87,52.04 466.00,51.65
             468.27,51.51 471.87,53.43 474.00,54.35
             474.00,54.35 489.00,60.06 489.00,60.06
             489.00,60.06 513.00,70.58 513.00,70.58
             513.00,70.58 551.00,86.86 551.00,86.86
             551.00,86.86 568.00,94.76 568.00,94.76
             570.93,96.27 573.84,97.54 574.67,101.04
             575.78,105.69 568.78,123.29 567.14,129.00
             567.14,129.00 556.30,167.00 556.30,167.00
             555.72,172.86 558.11,175.01 557.99,185.00
             557.91,191.26 556.95,198.81 555.92,205.00
             555.39,208.20 555.51,210.79 553.00,213.00 Z" />
</svg>
